<?xml version="1.0" encoding="UTF-8" standalone="no"?><svg xmlns="http://www.w3.org/2000/svg" xmlns:xlink="http://www.w3.org/1999/xlink" contentScriptType="application/ecmascript" contentStyleType="text/css" height="409.6px" preserveAspectRatio="none" style="width:546px;height:409px;" version="1.1" viewBox="0 0 546 409" width="546.4px" zoomAndPan="magnify"><defs><filter height="300%" id="fsbwxtb" width="300%" x="-1" y="-1"><feGaussianBlur result="blurOut" stdDeviation="1.600000023841858"/><feColorMatrix in="blurOut" result="blurOut2" type="matrix" values="0 0 0 0 0 0 0 0 0 0 0 0 0 0 0 0 0 0 .4 0"/><feOffset dx="3.200000047683716" dy="3.200000047683716" in="blurOut2" result="blurOut3"/><feBlend in="SourceGraphic" in2="blurOut3" mode="normal"/></filter></defs><g><rect fill="#000000" filter="url(#fsbwxtb)" height="4.8" rx="2" ry="2" style="stroke: #000000; stroke-width: 0.800000011920929;" width="532.8" x="8" y="8"/><polygon fill="#FBFB77" filter="url(#fsbwxtb)" points="19.2,20.8,19.2,65.1188,138.4,65.1188,138.4,28.8,130.4,20.8,19.2,20.8" style="stroke: #A80036; stroke-width: 0.800000011920929;"/><polygon fill="#FBFB77" points="19.2,20.8,19.2,65.1188,138.4,65.1188,138.4,46.1594,154.4,42.9594,138.4,39.7594,138.4,28.8,130.4,20.8,19.2,20.8" style="stroke: #A80036; stroke-width: 0.800000011920929;"/><line style="stroke: #A80036; stroke-width: 0.800000011920929;" x1="130.4" x2="130.4" y1="20.8" y2="28.8"/><line style="stroke: #A80036; stroke-width: 0.800000011920929;" x1="138.4" x2="130.4" y1="28.8" y2="28.8"/><text fill="#000000" font-family="Menlo" font-size="10.4" lengthAdjust="spacingAndGlyphs" textLength="102.4" x="24" y="34.4535">Position, color,</text><text fill="#000000" font-family="Menlo" font-size="10.4" lengthAdjust="spacingAndGlyphs" textLength="102.4" x="24" y="46.5598">normals, texture</text><text fill="#000000" font-family="Menlo" font-size="10.4" lengthAdjust="spacingAndGlyphs" textLength="70.4" x="24" y="58.666">coordinates</text><rect fill="#BBDEFB" filter="url(#fsbwxtb)" height="28.1063" rx="10" ry="10" style="stroke: #000000; stroke-width: 1.2000000178813934;" width="86.4" x="154.4" y="28.9063"/><text fill="#000000" font-family="Menlo" font-size="10.4" lengthAdjust="spacingAndGlyphs" textLength="70.4" x="162.4" y="46.5598">Vertex Data</text><polygon fill="#FBFB77" filter="url(#fsbwxtb)" points="346.4,32.9063,346.4,53.0125,529.6,53.0125,529.6,40.9063,521.6,32.9063,346.4,32.9063" style="stroke: #A80036; stroke-width: 0.800000011920929;"/><polygon fill="#FBFB77" points="346.4,32.9063,346.4,39.7594,330.4,42.9594,346.4,46.1594,346.4,53.0125,529.6,53.0125,529.6,40.9063,521.6,32.9063,346.4,32.9063" style="stroke: #A80036; stroke-width: 0.800000011920929;"/><line style="stroke: #A80036; stroke-width: 0.800000011920929;" x1="521.6" x2="521.6" y1="32.9063" y2="40.9063"/><line style="stroke: #A80036; stroke-width: 0.800000011920929;" x1="529.6" x2="521.6" y1="40.9063" y2="40.9063"/><text fill="#000000" font-family="Menlo" font-size="10.4" lengthAdjust="spacingAndGlyphs" textLength="166.4" x="351.2" y="46.5598">(e.g. Projection matrices)</text><rect fill="#BBDEFB" filter="url(#fsbwxtb)" height="28.1063" rx="10" ry="10" style="stroke: #000000; stroke-width: 1.2000000178813934;" width="67.2" x="263.2" y="28.9063"/><text fill="#000000" font-family="Menlo" font-size="10.4" lengthAdjust="spacingAndGlyphs" textLength="51.2" x="271.2" y="46.5598">Uniforms</text><rect fill="#000000" filter="url(#fsbwxtb)" height="4.8" rx="2" ry="2" style="stroke: #000000; stroke-width: 0.800000011920929;" width="532.8" x="8" y="81.1188"/><rect fill="#FFE0B2" filter="url(#fsbwxtb)" height="28.1063" rx="10" ry="10" style="stroke: #000000; stroke-width: 1.2000000178813934;" width="99.2" x="224.8" y="101.9188"/><text fill="#000000" font-family="Menlo" font-size="10.4" lengthAdjust="spacingAndGlyphs" textLength="83.2" x="232.8" y="119.5723">Vertex Shader</text><rect fill="#000000" filter="url(#fsbwxtb)" height="4.8" rx="2" ry="2" style="stroke: #000000; stroke-width: 0.800000011920929;" width="307.2" x="120.8" y="146.025"/><rect fill="#E0E0E0" filter="url(#fsbwxtb)" height="28.1063" rx="10" ry="10" style="stroke: #000000; stroke-width: 1.2000000178813934;" width="131.2" x="132" y="166.825"/><text fill="#000000" font-family="Menlo" font-size="10.4" lengthAdjust="spacingAndGlyphs" textLength="115.2" x="140" y="184.4785">Primitive Assembly</text><rect fill="#E0E0E0" filter="url(#fsbwxtb)" height="28.1063" rx="10" ry="10" style="stroke: #000000; stroke-width: 1.2000000178813934;" width="99.2" x="148" y="222.9313"/><text fill="#000000" font-family="Menlo" font-size="10.4" lengthAdjust="spacingAndGlyphs" textLength="83.2" x="156" y="240.5848">Rasterization</text><rect fill="#BBDEFB" filter="url(#fsbwxtb)" height="28.1063" rx="10" ry="10" style="stroke: #000000; stroke-width: 1.2000000178813934;" width="131.2" x="285.6" y="194.8781"/><text fill="#000000" font-family="Menlo" font-size="10.4" lengthAdjust="spacingAndGlyphs" textLength="115.2" x="293.6" y="212.5316">Uniforms, Textures</text><rect fill="#000000" filter="url(#fsbwxtb)" height="4.8" rx="2" ry="2" style="stroke: #000000; stroke-width: 0.800000011920929;" width="307.2" x="120.8" y="267.0375"/><rect fill="#FFE0B2" filter="url(#fsbwxtb)" height="28.1063" rx="10" ry="10" style="stroke: #000000; stroke-width: 1.2000000178813934;" width="112" x="218.4" y="287.8375"/><text fill="#000000" font-family="Menlo" font-size="10.4" lengthAdjust="spacingAndGlyphs" textLength="96" x="226.4" y="305.491">Fragment Shader</text><rect fill="#E0E0E0" filter="url(#fsbwxtb)" height="28.1063" rx="10" ry="10" style="stroke: #000000; stroke-width: 1.2000000178813934;" width="163.2" x="192.8" y="331.9438"/><text fill="#000000" font-family="Menlo" font-size="10.4" lengthAdjust="spacingAndGlyphs" textLength="147.2" x="200.8" y="349.5973">Per-Fragment Operations</text><rect fill="#BBDEFB" filter="url(#fsbwxtb)" height="28.1063" rx="10" ry="10" style="stroke: #000000; stroke-width: 1.2000000178813934;" width="86.4" x="231.2" y="376.05"/><text fill="#000000" font-family="Menlo" font-size="10.4" lengthAdjust="spacingAndGlyphs" textLength="70.4" x="239.2" y="393.7035">Framebuffer</text><line style="stroke: #000000; stroke-width: 1.2000000178813934;" x1="197.6" x2="197.6" y1="12.8" y2="28.9063"/><polygon fill="#000000" points="194.4,20.9063,197.6,28.9063,200.8,20.9063,197.6,24.1063" style="stroke: #000000; stroke-width: 0.800000011920929;"/><line style="stroke: #000000; stroke-width: 1.2000000178813934;" x1="197.6" x2="197.6" y1="57.0125" y2="81.1188"/><polygon fill="#000000" points="194.4,73.1188,197.6,81.1188,200.8,73.1188,197.6,76.3188" style="stroke: #000000; stroke-width: 0.800000011920929;"/><line style="stroke: #000000; stroke-width: 1.2000000178813934;" x1="296.8" x2="296.8" y1="12.8" y2="28.9063"/><polygon fill="#000000" points="293.6,20.9063,296.8,28.9063,300,20.9063,296.8,24.1063" style="stroke: #000000; stroke-width: 0.800000011920929;"/><line style="stroke: #000000; stroke-width: 1.2000000178813934;" x1="296.8" x2="296.8" y1="57.0125" y2="81.1188"/><polygon fill="#000000" points="293.6,73.1188,296.8,81.1188,300,73.1188,296.8,76.3188" style="stroke: #000000; stroke-width: 0.800000011920929;"/><line style="stroke: #000000; stroke-width: 1.2000000178813934;" x1="274.4" x2="274.4" y1="85.9188" y2="101.9188"/><polygon fill="#000000" points="271.2,93.9188,274.4,101.9188,277.6,93.9188,274.4,97.1188" style="stroke: #000000; stroke-width: 0.800000011920929;"/><line style="stroke: #000000; stroke-width: 1.2000000178813934;" x1="197.6" x2="197.6" y1="194.9313" y2="222.9313"/><polygon fill="#000000" points="194.4,214.9313,197.6,222.9313,200.8,214.9313,197.6,218.1313" style="stroke: #000000; stroke-width: 0.800000011920929;"/><line style="stroke: #000000; stroke-width: 1.2000000178813934;" x1="197.6" x2="197.6" y1="150.825" y2="166.825"/><polygon fill="#000000" points="194.4,158.825,197.6,166.825,200.8,158.825,197.6,162.025" style="stroke: #000000; stroke-width: 0.800000011920929;"/><line style="stroke: #000000; stroke-width: 1.2000000178813934;" x1="197.6" x2="197.6" y1="251.0375" y2="267.0375"/><polygon fill="#000000" points="194.4,259.0375,197.6,267.0375,200.8,259.0375,197.6,262.2375" style="stroke: #000000; stroke-width: 0.800000011920929;"/><line style="stroke: #000000; stroke-width: 1.2000000178813934;" x1="351.2" x2="351.2" y1="150.825" y2="194.8781"/><polygon fill="#000000" points="348,186.8781,351.2,194.8781,354.4,186.8781,351.2,190.0781" style="stroke: #000000; stroke-width: 0.800000011920929;"/><line style="stroke: #000000; stroke-width: 1.2000000178813934;" x1="351.2" x2="351.2" y1="222.9844" y2="267.0375"/><polygon fill="#000000" points="348,259.0375,351.2,267.0375,354.4,259.0375,351.2,262.2375" style="stroke: #000000; stroke-width: 0.800000011920929;"/><line style="stroke: #000000; stroke-width: 1.2000000178813934;" x1="274.4" x2="274.4" y1="130.025" y2="146.025"/><polygon fill="#000000" points="271.2,138.025,274.4,146.025,277.6,138.025,274.4,141.225" style="stroke: #000000; stroke-width: 0.800000011920929;"/><line style="stroke: #000000; stroke-width: 1.2000000178813934;" x1="274.4" x2="274.4" y1="271.8375" y2="287.8375"/><polygon fill="#000000" points="271.2,279.8375,274.4,287.8375,277.6,279.8375,274.4,283.0375" style="stroke: #000000; stroke-width: 0.800000011920929;"/><line style="stroke: #000000; stroke-width: 1.2000000178813934;" x1="274.4" x2="274.4" y1="315.9438" y2="331.9438"/><polygon fill="#000000" points="271.2,323.9438,274.4,331.9438,277.6,323.9438,274.4,327.1438" style="stroke: #000000; stroke-width: 0.800000011920929;"/><line style="stroke: #000000; stroke-width: 1.2000000178813934;" x1="274.4" x2="274.4" y1="360.05" y2="376.05"/><polygon fill="#000000" points="271.2,368.05,274.4,376.05,277.6,368.05,274.4,371.25" style="stroke: #000000; stroke-width: 0.800000011920929;"/></g></svg>